# xmcd CD database file
#
# Track frame offsets:
#	150
#	49032
#	88824
#	123732
#	157324
#	195639
#	225599
#	264018
#	295787
#
# Disc length: 4387 seconds
#
# Revision: 8
# Processed by: cddbd v1.5PL3 Copyright (c) Steve Scherf et al.
# Submitted via: CDex 1.51
#
DISCID=7b112109
DTITLE=Various Artist - South Afrika 2000 CD1 ELEKTRONIKA
DYEAR=2001
DGENRE=Trance
TTITLE0=Hallucinogen - Mi-Loony-um
TTITLE1=Tourtured Brain - Signed for Life
TTITLE2=Tim Shuldt - Les Ailes Du Desir
TTITLE3=PAPS and Droidlock - Innocent Victims
TTITLE4=X-Dream - Coming Soon
TTITLE5=Etnica - Casa Blanka
TTITLE6=Etnica - True Protoss Warrior
TTITLE7=Deviant Species - Intruder
TTITLE8=Tristan - Trntacloid
EXTD=cosmophilia distribution: SACD01 YEAR: 2001
EXTT0=
EXTT1=
EXTT2=
EXTT3=
EXTT4=
EXTT5=
EXTT6=
EXTT7=
EXTT8=
PLAYORDER=
